<mxfile host="app.diagrams.net" modified="2024-03-12T11:50:20.316Z" agent="Mozilla/5.0 (Windows NT 10.0; Win64; x64) AppleWebKit/537.36 (KHTML, like Gecko) Chrome/122.0.0.0 Safari/537.36" etag="6KltwIRp5Vz6rVvY0BgM" version="24.0.1" type="google">
  <diagram id="R2lEEEUBdFMjLlhIrx00" name="Page-1">
    <mxGraphModel grid="1" page="1" gridSize="10" guides="1" tooltips="1" connect="1" arrows="1" fold="1" pageScale="1" pageWidth="850" pageHeight="1100" math="0" shadow="0" extFonts="Permanent Marker^https://fonts.googleapis.com/css?family=Permanent+Marker">
      <root>
        <mxCell id="0" />
        <mxCell id="1" parent="0" />
        <mxCell id="Bi1fVH9bBWvj0MdAsN5d-1" value="&lt;font style=&quot;font-size: 14px;&quot;&gt;Customer_Name&lt;/font&gt;" style="ellipse;whiteSpace=wrap;html=1;" vertex="1" parent="1">
          <mxGeometry x="-923" y="-160" width="120" height="80" as="geometry" />
        </mxCell>
        <mxCell id="Bi1fVH9bBWvj0MdAsN5d-3" style="edgeStyle=orthogonalEdgeStyle;rounded=0;orthogonalLoop=1;jettySize=auto;html=1;exitX=0;exitY=0.5;exitDx=0;exitDy=0;" edge="1" parent="1" source="Bi1fVH9bBWvj0MdAsN5d-2" target="Bi1fVH9bBWvj0MdAsN5d-1">
          <mxGeometry relative="1" as="geometry" />
        </mxCell>
        <mxCell id="Bi1fVH9bBWvj0MdAsN5d-7" style="edgeStyle=orthogonalEdgeStyle;rounded=0;orthogonalLoop=1;jettySize=auto;html=1;exitX=0.5;exitY=0;exitDx=0;exitDy=0;" edge="1" parent="1" source="Bi1fVH9bBWvj0MdAsN5d-2">
          <mxGeometry relative="1" as="geometry">
            <mxPoint x="-623" y="-80" as="targetPoint" />
          </mxGeometry>
        </mxCell>
        <mxCell id="Bi1fVH9bBWvj0MdAsN5d-9" style="edgeStyle=orthogonalEdgeStyle;rounded=0;orthogonalLoop=1;jettySize=auto;html=1;exitX=0;exitY=0.75;exitDx=0;exitDy=0;" edge="1" parent="1" source="Bi1fVH9bBWvj0MdAsN5d-2">
          <mxGeometry relative="1" as="geometry">
            <mxPoint x="-873" y="70" as="targetPoint" />
          </mxGeometry>
        </mxCell>
        <mxCell id="Bi1fVH9bBWvj0MdAsN5d-12" value="" style="edgeStyle=orthogonalEdgeStyle;rounded=0;orthogonalLoop=1;jettySize=auto;html=1;" edge="1" parent="1" source="Bi1fVH9bBWvj0MdAsN5d-2" target="Bi1fVH9bBWvj0MdAsN5d-11">
          <mxGeometry relative="1" as="geometry" />
        </mxCell>
        <object label="&lt;font style=&quot;font-size: 21px;&quot;&gt;CUSTOMER&lt;/font&gt;" CUSTOMER="CUSTOmER" id="Bi1fVH9bBWvj0MdAsN5d-2">
          <mxCell style="rounded=0;whiteSpace=wrap;html=1;" vertex="1" parent="1">
            <mxGeometry x="-833" width="170" height="70" as="geometry" />
          </mxCell>
        </object>
        <mxCell id="Bi1fVH9bBWvj0MdAsN5d-4" value="&lt;font style=&quot;font-size: 13px;&quot;&gt;Customer_Address&lt;/font&gt;" style="ellipse;whiteSpace=wrap;html=1;" vertex="1" parent="1">
          <mxGeometry x="-793" y="-160" width="120" height="80" as="geometry" />
        </mxCell>
        <mxCell id="Bi1fVH9bBWvj0MdAsN5d-6" style="edgeStyle=orthogonalEdgeStyle;rounded=0;orthogonalLoop=1;jettySize=auto;html=1;exitX=0.25;exitY=0;exitDx=0;exitDy=0;entryX=0.404;entryY=1.025;entryDx=0;entryDy=0;entryPerimeter=0;" edge="1" parent="1" source="Bi1fVH9bBWvj0MdAsN5d-2" target="Bi1fVH9bBWvj0MdAsN5d-4">
          <mxGeometry relative="1" as="geometry">
            <Array as="points">
              <mxPoint x="-790" y="-40" />
              <mxPoint x="-763" y="-40" />
              <mxPoint x="-763" y="-70" />
              <mxPoint x="-744" y="-70" />
            </Array>
          </mxGeometry>
        </mxCell>
        <mxCell id="Bi1fVH9bBWvj0MdAsN5d-8" value="&lt;font style=&quot;font-size: 15px;&quot;&gt;Contact&lt;/font&gt;" style="ellipse;whiteSpace=wrap;html=1;" vertex="1" parent="1">
          <mxGeometry x="-663" y="-160" width="120" height="80" as="geometry" />
        </mxCell>
        <mxCell id="Bi1fVH9bBWvj0MdAsN5d-10" value="&lt;font style=&quot;font-size: 15px;&quot;&gt;Customer_Id&lt;/font&gt;" style="ellipse;whiteSpace=wrap;html=1;" vertex="1" parent="1">
          <mxGeometry x="-990" y="40" width="120" height="80" as="geometry" />
        </mxCell>
        <mxCell id="Bi1fVH9bBWvj0MdAsN5d-14" value="" style="edgeStyle=orthogonalEdgeStyle;rounded=0;orthogonalLoop=1;jettySize=auto;html=1;" edge="1" parent="1" source="Bi1fVH9bBWvj0MdAsN5d-11" target="Bi1fVH9bBWvj0MdAsN5d-13">
          <mxGeometry relative="1" as="geometry" />
        </mxCell>
        <mxCell id="Bi1fVH9bBWvj0MdAsN5d-11" value="&lt;font style=&quot;font-size: 15px;&quot;&gt;MAKE&lt;/font&gt;" style="rhombus;whiteSpace=wrap;html=1;rounded=0;" vertex="1" parent="1">
          <mxGeometry x="-538" y="-5" width="80" height="80" as="geometry" />
        </mxCell>
        <mxCell id="Bi1fVH9bBWvj0MdAsN5d-16" value="" style="edgeStyle=orthogonalEdgeStyle;rounded=0;orthogonalLoop=1;jettySize=auto;html=1;" edge="1" parent="1" source="Bi1fVH9bBWvj0MdAsN5d-13" target="Bi1fVH9bBWvj0MdAsN5d-15">
          <mxGeometry relative="1" as="geometry" />
        </mxCell>
        <mxCell id="Bi1fVH9bBWvj0MdAsN5d-22" value="" style="edgeStyle=orthogonalEdgeStyle;rounded=0;orthogonalLoop=1;jettySize=auto;html=1;" edge="1" parent="1" source="Bi1fVH9bBWvj0MdAsN5d-13" target="Bi1fVH9bBWvj0MdAsN5d-21">
          <mxGeometry relative="1" as="geometry" />
        </mxCell>
        <mxCell id="Bi1fVH9bBWvj0MdAsN5d-23" style="edgeStyle=orthogonalEdgeStyle;rounded=0;orthogonalLoop=1;jettySize=auto;html=1;exitX=0.25;exitY=0;exitDx=0;exitDy=0;" edge="1" parent="1" source="Bi1fVH9bBWvj0MdAsN5d-13" target="Bi1fVH9bBWvj0MdAsN5d-26">
          <mxGeometry relative="1" as="geometry">
            <mxPoint x="-367.6666666666665" y="-40" as="targetPoint" />
          </mxGeometry>
        </mxCell>
        <mxCell id="Bi1fVH9bBWvj0MdAsN5d-24" style="edgeStyle=orthogonalEdgeStyle;rounded=0;orthogonalLoop=1;jettySize=auto;html=1;exitX=0.5;exitY=0;exitDx=0;exitDy=0;" edge="1" parent="1" source="Bi1fVH9bBWvj0MdAsN5d-13" target="Bi1fVH9bBWvj0MdAsN5d-27">
          <mxGeometry relative="1" as="geometry">
            <mxPoint x="-313" y="-40" as="targetPoint" />
            <Array as="points">
              <mxPoint x="-323" y="5" />
              <mxPoint x="-323" y="-57" />
              <mxPoint x="-283" y="-57" />
            </Array>
          </mxGeometry>
        </mxCell>
        <mxCell id="Bi1fVH9bBWvj0MdAsN5d-25" style="edgeStyle=orthogonalEdgeStyle;rounded=0;orthogonalLoop=1;jettySize=auto;html=1;exitX=0.75;exitY=0;exitDx=0;exitDy=0;entryX=0.5;entryY=1;entryDx=0;entryDy=0;" edge="1" parent="1" source="Bi1fVH9bBWvj0MdAsN5d-13" target="Bi1fVH9bBWvj0MdAsN5d-28">
          <mxGeometry relative="1" as="geometry">
            <mxPoint x="-263" y="-40" as="targetPoint" />
            <Array as="points">
              <mxPoint x="-308" y="-17" />
              <mxPoint x="-183" y="-17" />
            </Array>
          </mxGeometry>
        </mxCell>
        <mxCell id="Bi1fVH9bBWvj0MdAsN5d-13" value="&lt;font style=&quot;font-size: 19px;&quot;&gt;Order&lt;/font&gt;" style="whiteSpace=wrap;html=1;rounded=0;" vertex="1" parent="1">
          <mxGeometry x="-398" y="5" width="120" height="60" as="geometry" />
        </mxCell>
        <mxCell id="Bi1fVH9bBWvj0MdAsN5d-18" value="" style="edgeStyle=orthogonalEdgeStyle;rounded=0;orthogonalLoop=1;jettySize=auto;html=1;" edge="1" parent="1" source="Bi1fVH9bBWvj0MdAsN5d-15" target="Bi1fVH9bBWvj0MdAsN5d-17">
          <mxGeometry relative="1" as="geometry" />
        </mxCell>
        <mxCell id="Bi1fVH9bBWvj0MdAsN5d-15" value="&lt;font style=&quot;font-size: 15px;&quot;&gt;HAS&lt;/font&gt;" style="rhombus;whiteSpace=wrap;html=1;rounded=0;" vertex="1" parent="1">
          <mxGeometry x="-178" y="-5" width="80" height="80" as="geometry" />
        </mxCell>
        <mxCell id="Bi1fVH9bBWvj0MdAsN5d-19" style="edgeStyle=orthogonalEdgeStyle;rounded=0;orthogonalLoop=1;jettySize=auto;html=1;exitX=0.25;exitY=0;exitDx=0;exitDy=0;" edge="1" parent="1" source="Bi1fVH9bBWvj0MdAsN5d-17" target="Bi1fVH9bBWvj0MdAsN5d-29">
          <mxGeometry relative="1" as="geometry">
            <mxPoint x="-7.666666666666515" y="-40" as="targetPoint" />
          </mxGeometry>
        </mxCell>
        <mxCell id="Bi1fVH9bBWvj0MdAsN5d-20" style="edgeStyle=orthogonalEdgeStyle;rounded=0;orthogonalLoop=1;jettySize=auto;html=1;exitX=0.75;exitY=0;exitDx=0;exitDy=0;entryX=0.608;entryY=1.053;entryDx=0;entryDy=0;entryPerimeter=0;" edge="1" parent="1" source="Bi1fVH9bBWvj0MdAsN5d-17" target="Bi1fVH9bBWvj0MdAsN5d-30">
          <mxGeometry relative="1" as="geometry">
            <mxPoint x="52.333333333333485" y="-40" as="targetPoint" />
            <Array as="points">
              <mxPoint x="52" y="-20" />
              <mxPoint x="130" y="-20" />
            </Array>
          </mxGeometry>
        </mxCell>
        <mxCell id="Bi1fVH9bBWvj0MdAsN5d-17" value="&lt;font style=&quot;font-size: 14px;&quot;&gt;TRACKING&lt;/font&gt;" style="whiteSpace=wrap;html=1;rounded=0;" vertex="1" parent="1">
          <mxGeometry x="-38" y="5" width="120" height="60" as="geometry" />
        </mxCell>
        <mxCell id="Bi1fVH9bBWvj0MdAsN5d-35" value="" style="edgeStyle=orthogonalEdgeStyle;rounded=0;orthogonalLoop=1;jettySize=auto;html=1;" edge="1" parent="1" source="Bi1fVH9bBWvj0MdAsN5d-21" target="Bi1fVH9bBWvj0MdAsN5d-34">
          <mxGeometry relative="1" as="geometry" />
        </mxCell>
        <mxCell id="Bi1fVH9bBWvj0MdAsN5d-21" value="&lt;font style=&quot;font-size: 13px;&quot;&gt;CONTAINS&lt;/font&gt;" style="rhombus;whiteSpace=wrap;html=1;rounded=0;" vertex="1" parent="1">
          <mxGeometry x="-265" y="80" width="80" height="80" as="geometry" />
        </mxCell>
        <mxCell id="Bi1fVH9bBWvj0MdAsN5d-26" value="&lt;font style=&quot;font-size: 13px;&quot;&gt;ORDER_NO.&lt;/font&gt;" style="ellipse;whiteSpace=wrap;html=1;" vertex="1" parent="1">
          <mxGeometry x="-443" y="-120" width="120" height="80" as="geometry" />
        </mxCell>
        <mxCell id="Bi1fVH9bBWvj0MdAsN5d-27" value="&lt;font style=&quot;font-size: 13px;&quot;&gt;ORDER_DATE&lt;/font&gt;" style="ellipse;whiteSpace=wrap;html=1;" vertex="1" parent="1">
          <mxGeometry x="-343" y="-200" width="120" height="80" as="geometry" />
        </mxCell>
        <mxCell id="Bi1fVH9bBWvj0MdAsN5d-28" value="&lt;font style=&quot;font-size: 14px;&quot;&gt;AMOUNT&lt;/font&gt;" style="ellipse;whiteSpace=wrap;html=1;" vertex="1" parent="1">
          <mxGeometry x="-243" y="-130" width="120" height="80" as="geometry" />
        </mxCell>
        <mxCell id="Bi1fVH9bBWvj0MdAsN5d-29" value="&lt;font style=&quot;font-size: 13px;&quot;&gt;TRACKING_NO.&lt;/font&gt;" style="ellipse;whiteSpace=wrap;html=1;" vertex="1" parent="1">
          <mxGeometry x="-83" y="-120" width="120" height="80" as="geometry" />
        </mxCell>
        <mxCell id="Bi1fVH9bBWvj0MdAsN5d-30" value="&lt;font style=&quot;font-size: 13px;&quot;&gt;COURIER_NAME&lt;/font&gt;" style="ellipse;whiteSpace=wrap;html=1;" vertex="1" parent="1">
          <mxGeometry x="57" y="-120" width="120" height="80" as="geometry" />
        </mxCell>
        <mxCell id="Bi1fVH9bBWvj0MdAsN5d-33" value="&lt;i&gt;&lt;u&gt;Entity Relationship Diagram&lt;/u&gt;&lt;/i&gt;" style="text;strokeColor=none;fillColor=none;html=1;fontSize=24;fontStyle=1;verticalAlign=middle;align=center;" vertex="1" parent="1">
          <mxGeometry x="-480" y="-400" width="350" height="80" as="geometry" />
        </mxCell>
        <mxCell id="Bi1fVH9bBWvj0MdAsN5d-36" style="edgeStyle=orthogonalEdgeStyle;rounded=0;orthogonalLoop=1;jettySize=auto;html=1;exitX=1;exitY=0;exitDx=0;exitDy=0;" edge="1" parent="1" source="Bi1fVH9bBWvj0MdAsN5d-34">
          <mxGeometry relative="1" as="geometry">
            <mxPoint x="220" y="256" as="targetPoint" />
          </mxGeometry>
        </mxCell>
        <mxCell id="Bi1fVH9bBWvj0MdAsN5d-37" style="edgeStyle=orthogonalEdgeStyle;rounded=0;orthogonalLoop=1;jettySize=auto;html=1;exitX=1;exitY=0.5;exitDx=0;exitDy=0;" edge="1" parent="1" source="Bi1fVH9bBWvj0MdAsN5d-34">
          <mxGeometry relative="1" as="geometry">
            <mxPoint x="240" y="316" as="targetPoint" />
          </mxGeometry>
        </mxCell>
        <mxCell id="Bi1fVH9bBWvj0MdAsN5d-38" style="edgeStyle=orthogonalEdgeStyle;rounded=0;orthogonalLoop=1;jettySize=auto;html=1;exitX=1;exitY=1;exitDx=0;exitDy=0;" edge="1" parent="1" source="Bi1fVH9bBWvj0MdAsN5d-34" target="Bi1fVH9bBWvj0MdAsN5d-41">
          <mxGeometry relative="1" as="geometry">
            <mxPoint x="220" y="376" as="targetPoint" />
          </mxGeometry>
        </mxCell>
        <mxCell id="Bi1fVH9bBWvj0MdAsN5d-48" value="" style="edgeStyle=orthogonalEdgeStyle;rounded=0;orthogonalLoop=1;jettySize=auto;html=1;" edge="1" parent="1" source="Bi1fVH9bBWvj0MdAsN5d-34" target="Bi1fVH9bBWvj0MdAsN5d-47">
          <mxGeometry relative="1" as="geometry" />
        </mxCell>
        <mxCell id="Bi1fVH9bBWvj0MdAsN5d-34" value="&lt;font style=&quot;font-size: 15px;&quot;&gt;PRODUCT&lt;/font&gt;" style="whiteSpace=wrap;html=1;rounded=0;" vertex="1" parent="1">
          <mxGeometry x="75" y="286" width="125" height="60" as="geometry" />
        </mxCell>
        <mxCell id="Bi1fVH9bBWvj0MdAsN5d-40" value="PRODUCT_PRICE" style="ellipse;whiteSpace=wrap;html=1;" vertex="1" parent="1">
          <mxGeometry x="-10" y="386" width="120" height="80" as="geometry" />
        </mxCell>
        <mxCell id="Bi1fVH9bBWvj0MdAsN5d-41" value="PRODUCT_STATUS" style="ellipse;whiteSpace=wrap;html=1;" vertex="1" parent="1">
          <mxGeometry x="180" y="376" width="120" height="80" as="geometry" />
        </mxCell>
        <mxCell id="Bi1fVH9bBWvj0MdAsN5d-42" value="PRODUCT_NAME" style="ellipse;whiteSpace=wrap;html=1;" vertex="1" parent="1">
          <mxGeometry x="240" y="276" width="120" height="80" as="geometry" />
        </mxCell>
        <mxCell id="Bi1fVH9bBWvj0MdAsN5d-43" value="PRODUCT_ID" style="ellipse;whiteSpace=wrap;html=1;" vertex="1" parent="1">
          <mxGeometry x="160" y="180" width="120" height="80" as="geometry" />
        </mxCell>
        <mxCell id="Bi1fVH9bBWvj0MdAsN5d-50" value="" style="edgeStyle=orthogonalEdgeStyle;rounded=0;orthogonalLoop=1;jettySize=auto;html=1;" edge="1" parent="1" source="Bi1fVH9bBWvj0MdAsN5d-47" target="Bi1fVH9bBWvj0MdAsN5d-49">
          <mxGeometry relative="1" as="geometry" />
        </mxCell>
        <mxCell id="Bi1fVH9bBWvj0MdAsN5d-47" value="SUPPLIES" style="rhombus;whiteSpace=wrap;html=1;rounded=0;" vertex="1" parent="1">
          <mxGeometry x="97.5" y="486" width="80" height="80" as="geometry" />
        </mxCell>
        <mxCell id="Bi1fVH9bBWvj0MdAsN5d-75" style="edgeStyle=orthogonalEdgeStyle;rounded=0;orthogonalLoop=1;jettySize=auto;html=1;exitX=0;exitY=0.25;exitDx=0;exitDy=0;" edge="1" parent="1" source="Bi1fVH9bBWvj0MdAsN5d-49" target="Bi1fVH9bBWvj0MdAsN5d-74">
          <mxGeometry relative="1" as="geometry" />
        </mxCell>
        <mxCell id="Bi1fVH9bBWvj0MdAsN5d-76" style="edgeStyle=orthogonalEdgeStyle;rounded=0;orthogonalLoop=1;jettySize=auto;html=1;exitX=0.25;exitY=0;exitDx=0;exitDy=0;entryX=0.5;entryY=1;entryDx=0;entryDy=0;" edge="1" parent="1" source="Bi1fVH9bBWvj0MdAsN5d-49" target="Bi1fVH9bBWvj0MdAsN5d-73">
          <mxGeometry relative="1" as="geometry" />
        </mxCell>
        <mxCell id="Bi1fVH9bBWvj0MdAsN5d-77" style="edgeStyle=orthogonalEdgeStyle;rounded=0;orthogonalLoop=1;jettySize=auto;html=1;exitX=1;exitY=0.25;exitDx=0;exitDy=0;entryX=0.5;entryY=1;entryDx=0;entryDy=0;" edge="1" parent="1" source="Bi1fVH9bBWvj0MdAsN5d-49" target="Bi1fVH9bBWvj0MdAsN5d-72">
          <mxGeometry relative="1" as="geometry" />
        </mxCell>
        <mxCell id="Bi1fVH9bBWvj0MdAsN5d-49" value="SUPPLIER" style="whiteSpace=wrap;html=1;rounded=0;" vertex="1" parent="1">
          <mxGeometry x="-320" y="496" width="120" height="60" as="geometry" />
        </mxCell>
        <mxCell id="Bi1fVH9bBWvj0MdAsN5d-53" value="" style="edgeStyle=orthogonalEdgeStyle;rounded=0;orthogonalLoop=1;jettySize=auto;html=1;" edge="1" parent="1" source="Bi1fVH9bBWvj0MdAsN5d-51" target="Bi1fVH9bBWvj0MdAsN5d-52">
          <mxGeometry relative="1" as="geometry" />
        </mxCell>
        <mxCell id="Bi1fVH9bBWvj0MdAsN5d-83" style="edgeStyle=orthogonalEdgeStyle;rounded=0;orthogonalLoop=1;jettySize=auto;html=1;exitX=0.5;exitY=1;exitDx=0;exitDy=0;entryX=0.5;entryY=0;entryDx=0;entryDy=0;" edge="1" parent="1" source="Bi1fVH9bBWvj0MdAsN5d-51" target="Bi1fVH9bBWvj0MdAsN5d-80">
          <mxGeometry relative="1" as="geometry" />
        </mxCell>
        <mxCell id="Bi1fVH9bBWvj0MdAsN5d-84" style="edgeStyle=orthogonalEdgeStyle;rounded=0;orthogonalLoop=1;jettySize=auto;html=1;exitX=0;exitY=0.5;exitDx=0;exitDy=0;" edge="1" parent="1" source="Bi1fVH9bBWvj0MdAsN5d-51" target="Bi1fVH9bBWvj0MdAsN5d-81">
          <mxGeometry relative="1" as="geometry" />
        </mxCell>
        <mxCell id="Bi1fVH9bBWvj0MdAsN5d-85" style="edgeStyle=orthogonalEdgeStyle;rounded=0;orthogonalLoop=1;jettySize=auto;html=1;exitX=0.5;exitY=0;exitDx=0;exitDy=0;entryX=0.5;entryY=1;entryDx=0;entryDy=0;" edge="1" parent="1" source="Bi1fVH9bBWvj0MdAsN5d-51" target="Bi1fVH9bBWvj0MdAsN5d-82">
          <mxGeometry relative="1" as="geometry" />
        </mxCell>
        <object label="&lt;font style=&quot;font-size: 21px;&quot;&gt;ADMIN&lt;/font&gt;" CUSTOMER="CUSTOmER" id="Bi1fVH9bBWvj0MdAsN5d-51">
          <mxCell style="rounded=0;whiteSpace=wrap;html=1;" vertex="1" parent="1">
            <mxGeometry x="-833" y="280" width="170" height="70" as="geometry" />
          </mxCell>
        </object>
        <mxCell id="Bi1fVH9bBWvj0MdAsN5d-57" value="" style="edgeStyle=orthogonalEdgeStyle;rounded=0;orthogonalLoop=1;jettySize=auto;html=1;" edge="1" parent="1" source="Bi1fVH9bBWvj0MdAsN5d-52" target="Bi1fVH9bBWvj0MdAsN5d-56">
          <mxGeometry relative="1" as="geometry" />
        </mxCell>
        <mxCell id="Bi1fVH9bBWvj0MdAsN5d-52" value="&lt;font style=&quot;font-size: 13px;&quot;&gt;MANAGE&lt;/font&gt;" style="rhombus;whiteSpace=wrap;html=1;rounded=0;" vertex="1" parent="1">
          <mxGeometry x="-610" y="275" width="80" height="80" as="geometry" />
        </mxCell>
        <mxCell id="Bi1fVH9bBWvj0MdAsN5d-59" value="" style="edgeStyle=orthogonalEdgeStyle;rounded=0;orthogonalLoop=1;jettySize=auto;html=1;" edge="1" parent="1" source="Bi1fVH9bBWvj0MdAsN5d-56" target="Bi1fVH9bBWvj0MdAsN5d-58">
          <mxGeometry relative="1" as="geometry" />
        </mxCell>
        <mxCell id="Bi1fVH9bBWvj0MdAsN5d-86" style="edgeStyle=orthogonalEdgeStyle;rounded=0;orthogonalLoop=1;jettySize=auto;html=1;exitX=0.5;exitY=0;exitDx=0;exitDy=0;" edge="1" parent="1" source="Bi1fVH9bBWvj0MdAsN5d-56" target="Bi1fVH9bBWvj0MdAsN5d-87">
          <mxGeometry relative="1" as="geometry">
            <mxPoint x="-425.3333333333335" y="235" as="targetPoint" />
          </mxGeometry>
        </mxCell>
        <mxCell id="Bi1fVH9bBWvj0MdAsN5d-56" value="ONLINE Shopping APP" style="whiteSpace=wrap;html=1;rounded=0;" vertex="1" parent="1">
          <mxGeometry x="-485" y="285" width="120" height="60" as="geometry" />
        </mxCell>
        <mxCell id="Bi1fVH9bBWvj0MdAsN5d-62" value="" style="edgeStyle=orthogonalEdgeStyle;rounded=0;orthogonalLoop=1;jettySize=auto;html=1;" edge="1" parent="1" source="Bi1fVH9bBWvj0MdAsN5d-58" target="Bi1fVH9bBWvj0MdAsN5d-61">
          <mxGeometry relative="1" as="geometry" />
        </mxCell>
        <mxCell id="Bi1fVH9bBWvj0MdAsN5d-58" value="HAS" style="rhombus;whiteSpace=wrap;html=1;rounded=0;" vertex="1" parent="1">
          <mxGeometry x="-303" y="276" width="80" height="80" as="geometry" />
        </mxCell>
        <mxCell id="Bi1fVH9bBWvj0MdAsN5d-66" value="" style="edgeStyle=orthogonalEdgeStyle;rounded=0;orthogonalLoop=1;jettySize=auto;html=1;" edge="1" parent="1" source="Bi1fVH9bBWvj0MdAsN5d-61" target="Bi1fVH9bBWvj0MdAsN5d-65">
          <mxGeometry relative="1" as="geometry" />
        </mxCell>
        <mxCell id="Bi1fVH9bBWvj0MdAsN5d-89" style="edgeStyle=orthogonalEdgeStyle;rounded=0;orthogonalLoop=1;jettySize=auto;html=1;exitX=0.25;exitY=0;exitDx=0;exitDy=0;entryX=0.5;entryY=1;entryDx=0;entryDy=0;" edge="1" parent="1" source="Bi1fVH9bBWvj0MdAsN5d-61">
          <mxGeometry relative="1" as="geometry">
            <mxPoint x="-155" y="246" as="targetPoint" />
          </mxGeometry>
        </mxCell>
        <mxCell id="Bi1fVH9bBWvj0MdAsN5d-61" value="PRODUCT CATEGORY" style="whiteSpace=wrap;html=1;rounded=0;" vertex="1" parent="1">
          <mxGeometry x="-185" y="286" width="120" height="60" as="geometry" />
        </mxCell>
        <mxCell id="Bi1fVH9bBWvj0MdAsN5d-67" value="" style="edgeStyle=orthogonalEdgeStyle;rounded=0;orthogonalLoop=1;jettySize=auto;html=1;" edge="1" parent="1" source="Bi1fVH9bBWvj0MdAsN5d-65" target="Bi1fVH9bBWvj0MdAsN5d-34">
          <mxGeometry relative="1" as="geometry" />
        </mxCell>
        <mxCell id="Bi1fVH9bBWvj0MdAsN5d-65" value="HAS" style="rhombus;whiteSpace=wrap;html=1;rounded=0;" vertex="1" parent="1">
          <mxGeometry x="-38" y="276" width="80" height="80" as="geometry" />
        </mxCell>
        <mxCell id="Bi1fVH9bBWvj0MdAsN5d-72" value="&lt;font style=&quot;font-size: 13px;&quot;&gt;Supplier_Address&lt;/font&gt;" style="ellipse;whiteSpace=wrap;html=1;" vertex="1" parent="1">
          <mxGeometry x="-218" y="376" width="120" height="80" as="geometry" />
        </mxCell>
        <mxCell id="Bi1fVH9bBWvj0MdAsN5d-73" value="&lt;font style=&quot;font-size: 13px;&quot;&gt;Supplier_Name&lt;/font&gt;" style="ellipse;whiteSpace=wrap;html=1;" vertex="1" parent="1">
          <mxGeometry x="-343" y="376" width="120" height="80" as="geometry" />
        </mxCell>
        <mxCell id="Bi1fVH9bBWvj0MdAsN5d-74" value="&lt;font style=&quot;font-size: 13px;&quot;&gt;Supplier_Id&lt;/font&gt;" style="ellipse;whiteSpace=wrap;html=1;" vertex="1" parent="1">
          <mxGeometry x="-520" y="390" width="120" height="80" as="geometry" />
        </mxCell>
        <mxCell id="Bi1fVH9bBWvj0MdAsN5d-78" style="edgeStyle=orthogonalEdgeStyle;rounded=0;orthogonalLoop=1;jettySize=auto;html=1;exitX=0.25;exitY=1;exitDx=0;exitDy=0;entryX=0.606;entryY=-0.038;entryDx=0;entryDy=0;entryPerimeter=0;" edge="1" parent="1" source="Bi1fVH9bBWvj0MdAsN5d-34" target="Bi1fVH9bBWvj0MdAsN5d-40">
          <mxGeometry relative="1" as="geometry" />
        </mxCell>
        <mxCell id="Bi1fVH9bBWvj0MdAsN5d-80" value="ADMIN_ROLE" style="ellipse;whiteSpace=wrap;html=1;" vertex="1" parent="1">
          <mxGeometry x="-820" y="406" width="120" height="80" as="geometry" />
        </mxCell>
        <mxCell id="Bi1fVH9bBWvj0MdAsN5d-81" value="ADMIN_NAME" style="ellipse;whiteSpace=wrap;html=1;" vertex="1" parent="1">
          <mxGeometry x="-1000" y="270" width="120" height="80" as="geometry" />
        </mxCell>
        <mxCell id="Bi1fVH9bBWvj0MdAsN5d-82" value="ADMIN_ID" style="ellipse;whiteSpace=wrap;html=1;" vertex="1" parent="1">
          <mxGeometry x="-820" y="165" width="120" height="80" as="geometry" />
        </mxCell>
        <mxCell id="Bi1fVH9bBWvj0MdAsN5d-87" value="APP Name" style="ellipse;whiteSpace=wrap;html=1;" vertex="1" parent="1">
          <mxGeometry x="-485.0033333333335" y="155" width="120" height="80" as="geometry" />
        </mxCell>
        <mxCell id="Bi1fVH9bBWvj0MdAsN5d-88" value="PRODUCT_ID" style="ellipse;whiteSpace=wrap;html=1;" vertex="1" parent="1">
          <mxGeometry x="-208" y="190" width="110" height="55" as="geometry" />
        </mxCell>
        <mxCell id="Bi1fVH9bBWvj0MdAsN5d-90" value="PRODUCT_NAME" style="ellipse;whiteSpace=wrap;html=1;" vertex="1" parent="1">
          <mxGeometry x="-83" y="190" width="110" height="55" as="geometry" />
        </mxCell>
        <mxCell id="Bi1fVH9bBWvj0MdAsN5d-91" style="edgeStyle=orthogonalEdgeStyle;rounded=0;orthogonalLoop=1;jettySize=auto;html=1;exitX=0.75;exitY=0;exitDx=0;exitDy=0;entryX=0.358;entryY=1.027;entryDx=0;entryDy=0;entryPerimeter=0;" edge="1" parent="1" source="Bi1fVH9bBWvj0MdAsN5d-61">
          <mxGeometry relative="1" as="geometry">
            <mxPoint x="-38.61999999999989" y="247.48500000000013" as="targetPoint" />
          </mxGeometry>
        </mxCell>
      </root>
    </mxGraphModel>
  </diagram>
</mxfile>
